<svg xmlns="http://www.w3.org/2000/svg" viewBox="0 0 170.62 170.62">
  <defs>
    <style>.cls-1, .cls-2 {
      fill: #fff;
    }

    .cls-1, .cls-2, .cls-3 {
      stroke: #fff;
    }

    .cls-1, .cls-3 {
      stroke-miterlimit: 10;
    }

    .cls-2 {
      font-size: 39.63px;
      font-family: Helvetica-Light, Helvetica;
      font-weight: 300;
    }

    .cls-3 {
      fill: none;
      stroke-width: 2px;
    }</style>
  </defs>
  <title>Asset 16</title>
  <g id="Layer_2" data-name="Layer 2">
    <g id="Layer_1-2" data-name="Layer 1">
      <path class="cls-1"
            d="M85.31,170.12a84.81,84.81,0,0,1-60-144.78A84.81,84.81,0,0,1,145.28,145.28,84.3,84.3,0,0,1,85.31,170.12Zm0-167.39a82.58,82.58,0,0,0-58.39,141A82.58,82.58,0,0,0,143.7,26.92,82,82,0,0,0,85.31,2.73Z"/>
      <path class="cls-1"
            d="M85.31,159.65A74.34,74.34,0,0,1,32.74,32.74,74.35,74.35,0,0,1,137.88,137.88,73.86,73.86,0,0,1,85.31,159.65Zm0-146.46a72.11,72.11,0,0,0-51,123.11,72.11,72.11,0,0,0,102-102A71.61,71.61,0,0,0,85.31,13.19Z"/>
      <text class="cls-2" transform="translate(55.33 111.31) scale(0.98 1)">?</text>
      <path class="cls-3" d="M55.41,123.19a42,42,0,0,0,9.7,1.13c19.12,0,34-12,34.26-27.66"/>
      <line class="cls-3" x1="89.36" y1="61.5" x2="127.28" y2="61.5"/>
      <line class="cls-3" x1="89.36" y1="70.3" x2="127.28" y2="70.3"/>
      <line class="cls-3" x1="89.36" y1="79.1" x2="127.28" y2="79.1"/>
      <path class="cls-3" d="M131.67,95.52h7.27A2.52,2.52,0,0,0,141.46,93V70.17"/>
      <path class="cls-3" d="M94,45A14.36,14.36,0,1,0,75.45,63.56"/>
      <circle class="cls-3" cx="80.53" cy="50.18" r="9.7"/>
      <polyline class="cls-3" points="75.69 50.56 78.4 53.31 85.37 47.04"/>
      <path class="cls-3"
            d="M79.53,59.92v28c0,1.94,1.26,3.52,2.81,3.52h28.09l17,16.41-1.57-16.41h8.43c1.55,0,2.81-1.58,2.81-3.52V52.7c0-2-1.26-3.52-2.81-3.52H90.22"/>
      <path class="cls-3"
            d="M79.59,74.08A34.94,34.94,0,0,0,65,71c-16.5,0-29.87,11-29.87,24.57a21.85,21.85,0,0,0,6.36,15.14l-4.33,19.24,18-11.19A35.8,35.8,0,0,0,65,120.1c16.49,0,29.86-11,29.86-24.57a20.76,20.76,0,0,0-.42-4.11"/>
    </g>
  </g>
</svg>
